<svg width="14" height="14" viewBox="0 0 14 14" fill="none" xmlns="http://www.w3.org/2000/svg">
<path d="M7.73499 2.09923L2.94583 7.1684C2.76499 7.3609 2.58999 7.74006 2.55499 8.00256L2.33916 9.89256C2.26333 10.5751 2.75333 11.0417 3.42999 10.9251L5.30833 10.6042C5.57083 10.5576 5.93833 10.3651 6.11916 10.1667L10.9083 5.09756C11.7367 4.22256 12.11 3.22506 10.8208 2.0059C9.53749 0.798398 8.56333 1.22423 7.73499 2.09923V2.09923Z" stroke="black" stroke-miterlimit="10" stroke-linecap="round" stroke-linejoin="round"/>
<path d="M6.93583 2.94531C7.05812 3.72748 7.43669 4.44689 8.01209 4.99062C8.5875 5.53436 9.32717 5.87162 10.115 5.94948M1.75 12.8328H12.25" stroke="black" stroke-miterlimit="10" stroke-linecap="round" stroke-linejoin="round"/>
</svg>
