<?xml version="1.0" encoding="UTF-8"?>
<!DOCTYPE svg PUBLIC "-//W3C//DTD SVG 1.1//EN" "http://www.w3.org/Graphics/SVG/1.1/DTD/svg11.dtd">
<!-- Creator: CorelDRAW 2019 (64-Bit) -->
<svg xmlns="http://www.w3.org/2000/svg" xml:space="preserve" width="2.80301in" height="1.34631in" version="1.1" shape-rendering="geometricPrecision" text-rendering="geometricPrecision" image-rendering="optimizeQuality" fill-rule="evenodd" clip-rule="evenodd"
viewBox="0 0 2181.38 1047.74"
 xmlns:xlink="http://www.w3.org/1999/xlink"
 xmlns:xodm="http://www.corel.com/coreldraw/odm/2003">
 <g id="Layer_x0020_1">
  <metadata id="CorelCorpID_0Corel-Layer"/>
  <g id="_2431114184784">
   <path fill="white" d="M-0 584.97l0 -579.93 250.04 0c28.23,0 54.44,5.85 78.44,17.54 24,11.69 44.56,27.02 61.7,45.77 17.14,18.75 30.65,40.33 40.33,64.53 9.88,24.2 14.72,48.6 14.72,73.2 0,25.61 -4.64,50.41 -13.91,74.81 -9.27,24.2 -22.18,45.77 -38.72,64.53 -16.54,18.75 -36.7,33.68 -60.49,44.97 -23.59,11.09 -49.6,16.73 -78.04,16.73l-94.77 0 0 178.05 -159.3 0 0 -0.2zm159.3 -316.78l84.09 0c9.88,0 18.95,-4.44 27.42,-13.51 8.47,-9.08 12.7,-25.21 12.7,-48.6 0,-24 -4.84,-40.33 -14.72,-49 -9.88,-8.67 -19.56,-13.11 -29.44,-13.11l-80.05 0 0 124.21z"/>
   <polygon fill="white" points="669.66,584.97 669.66,5.04 828.96,5.04 828.96,584.97 "/>
   <path fill="white" d="M1443.16 194.58c-16.33,-9.88 -33.27,-18.55 -50.61,-26.21 -14.72,-6.45 -31.25,-12.7 -49.4,-18.35 -18.35,-5.65 -36.1,-8.67 -53.43,-8.67 -14.12,0 -25.41,2.22 -33.88,6.45 -8.47,4.44 -12.7,11.69 -12.7,21.98 0,7.66 2.42,13.91 7.26,18.75 4.84,4.84 11.9,9.48 21.17,13.51 9.27,4.03 20.57,8.07 33.88,11.9 13.31,3.83 28.43,8.47 45.37,13.91 26.62,8.07 50.81,17.14 72.19,27.02 21.58,9.88 39.93,21.37 55.05,34.68 15.33,13.31 27.02,29.64 35.08,48.6 8.27,19.16 12.3,42.14 12.3,69.37 0,34.89 -6.45,64.12 -19.16,87.72 -12.7,23.59 -29.64,42.55 -50.61,56.86 -20.97,14.12 -44.56,24.4 -70.98,30.65 -26.41,6.25 -53.03,9.48 -79.65,9.48 -21.17,0 -42.95,-1.61 -65.33,-4.84 -22.38,-3.23 -44.56,-7.86 -66.54,-13.91 -21.98,-6.05 -43.35,-13.11 -63.72,-21.17 -20.37,-8.27 -39.32,-17.34 -56.86,-27.83l68.56 -139.74c18.95,11.9 38.92,22.58 59.69,31.86 17.34,8.27 37.1,15.53 59.28,21.98 21.98,6.45 44.56,9.88 67.35,9.88 17.34,0 29.44,-2.22 36.29,-6.86 6.86,-4.64 10.28,-10.69 10.28,-18.35 0,-8.27 -3.43,-15.12 -10.28,-20.77 -6.86,-5.65 -16.13,-10.69 -28.23,-15.12 -11.9,-4.44 -25.81,-8.67 -41.34,-13.11 -15.53,-4.44 -32.06,-9.48 -49.4,-15.53 -25.61,-8.67 -47.59,-18.15 -66.14,-28.23 -18.55,-10.08 -33.68,-21.58 -45.77,-34.28 -11.9,-12.7 -20.77,-27.42 -26.62,-43.76 -5.65,-16.33 -8.67,-35.08 -8.67,-56.46 0,-32.06 5.85,-60.49 17.54,-84.89 11.69,-24.6 27.62,-44.97 47.79,-61.3 20.16,-16.33 43.15,-28.63 68.96,-37.1 25.81,-8.47 53.24,-12.7 82.07,-12.7 21.17,0 41.94,2.02 62.1,6.05 20.16,4.03 39.52,9.27 58.48,15.53 18.75,6.25 36.29,13.11 52.63,20.37 16.33,7.26 31.05,14.32 44.16,20.77l-68.16 131.87z"/>
   <polygon fill="white" points="1759.13,584.97 1759.13,5.04 1918.43,5.04 1918.43,446.03 2181.38,446.03 2181.38,584.97 "/>
   <path fill="#FF9A33" d="M222.61 836.01c-58.48,0 -105.86,47.39 -105.86,105.86 0,58.48 47.39,105.86 105.86,105.86 58.48,0 105.86,-47.39 105.86,-105.86 0,-58.48 -47.39,-105.86 -105.86,-105.86z"/>
   <path fill="#148907" d="M749.31 836.01c-58.48,0 -105.86,47.39 -105.86,105.86 0,58.48 47.39,105.86 105.86,105.86 58.48,0 105.86,-47.39 105.86,-105.86 0,-58.48 -47.39,-105.86 -105.86,-105.86z"/>
   <path fill="#D7AF5E" d="M1289.11 836.01c-58.48,0 -105.86,47.39 -105.86,105.86 0,58.48 47.39,105.86 105.86,105.86 58.48,0 105.86,-47.39 105.86,-105.86 0,-58.48 -47.39,-105.86 -105.86,-105.86z"/>
   <path fill="#7C4799" d="M1970.25 836.01c-58.48,0 -105.86,47.39 -105.86,105.86 0,58.48 47.39,105.86 105.86,105.86 58.48,0 105.86,-47.39 105.86,-105.86 0,-58.48 -47.39,-105.86 -105.86,-105.86z"/>
  </g>
 </g>
</svg>
