<svg width="13" height="18" viewBox="0 0 13 18" fill="none" xmlns="http://www.w3.org/2000/svg">
<path d="M12.8942 3.71692L9.28308 0.105794C9.21538 0.0380859 9.1237 0 9.02775 0H1.44442C0.647799 0 0 0.647799 0 1.44446V15.8889C0 16.6855 0.647799 17.3333 1.44446 17.3333H11.5556C12.3522 17.3333 13 16.6855 13 15.8889V3.97221C13 3.8763 12.9619 3.78463 12.8942 3.71692ZM9.38888 1.23287L11.7671 3.61112H10.1111C9.71296 3.61112 9.38888 3.28704 9.38888 2.88891V1.23287ZM12.2778 15.8889C12.2778 16.287 11.9537 16.6111 11.5556 16.6111H1.44446C1.04633 16.6111 0.722245 16.287 0.722245 15.8889V1.44446C0.722245 1.04633 1.04633 0.722245 1.44446 0.722245H8.66667V2.88891C8.66667 3.68553 9.31447 4.33333 10.1111 4.33333H12.2778V15.8889Z" fill="#988A8A"/>
<path d="M8.341 10.6005C8.00669 10.3374 7.68896 10.067 7.47738 9.85538C7.20231 9.58032 6.95721 9.31372 6.74423 9.05981C7.07644 8.03325 7.22208 7.50394 7.22208 7.2218C7.22208 6.02316 6.78902 5.77734 6.13875 5.77734C5.64468 5.77734 5.05542 6.03406 5.05542 7.25636C5.05542 7.79522 5.35059 8.44939 5.93562 9.20968C5.79245 9.6466 5.62423 10.1506 5.43523 10.7187C5.34423 10.9913 5.24551 11.2437 5.1411 11.4772C5.05613 11.5149 4.97359 11.5534 4.8939 11.5932C4.60685 11.7368 4.33425 11.8658 4.0814 11.9857C2.92822 12.5316 2.1665 12.8927 2.1665 13.6058C2.1665 14.1235 2.72899 14.444 3.24984 14.444C3.92127 14.444 4.93513 13.5472 5.67569 12.0365C6.44445 11.7332 7.40016 11.5085 8.15446 11.3679C8.75889 11.8326 9.42646 12.2773 9.74984 12.2773C10.6452 12.2773 10.8332 11.7596 10.8332 11.3255C10.8332 10.4718 9.85773 10.4718 9.38872 10.4718C9.24307 10.4718 8.85236 10.5148 8.341 10.6005ZM3.24984 13.7218C3.04353 13.7218 2.90388 13.6245 2.88871 13.6058C2.88871 13.3497 3.65219 12.9879 4.39066 12.6381C4.43754 12.6159 4.48518 12.5937 4.53349 12.5708C3.99111 13.3572 3.45472 13.7218 3.24984 13.7218ZM5.77763 7.25636C5.77763 6.49959 6.01251 6.49959 6.13875 6.49959C6.39408 6.49959 6.49987 6.49959 6.49987 7.2218C6.49987 7.37414 6.39831 7.755 6.21245 8.34958C5.92889 7.913 5.77763 7.53884 5.77763 7.25636ZM6.05445 11.1376C6.07703 11.0748 6.0989 11.0114 6.12006 10.9472C6.25406 10.5452 6.37468 10.184 6.48223 9.8589C6.63211 10.0239 6.79362 10.1929 6.96679 10.366C7.0345 10.4337 7.20234 10.5861 7.42595 10.7768C6.98084 10.8738 6.50725 10.9941 6.05445 11.1376ZM10.111 11.3256C10.111 11.4878 10.111 11.5551 9.77594 11.5573C9.67756 11.5361 9.45009 11.4021 9.16937 11.211C9.27128 11.1997 9.3464 11.194 9.38872 11.194C9.92229 11.194 10.0736 11.2462 10.111 11.3256Z" fill="#988A8A"/>
</svg>
