<svg width="24" height="24" viewBox="0 0 24 24" fill="none" xmlns="http://www.w3.org/2000/svg">
<g opacity="0.8">
<path d="M3.5 7.5C3.08333 7.5 2.72933 7.354 2.438 7.062C2.146 6.77067 2 6.41667 2 6C2 5.58333 2.146 5.22933 2.438 4.938C2.72933 4.646 3.08333 4.5 3.5 4.5C3.91667 4.5 4.27067 4.646 4.562 4.938C4.854 5.22933 5 5.58333 5 6C5 6.41667 4.854 6.77067 4.562 7.062C4.27067 7.354 3.91667 7.5 3.5 7.5ZM3.5 13.5C3.08333 13.5 2.72933 13.354 2.438 13.062C2.146 12.7707 2 12.4167 2 12C2 11.5833 2.146 11.2293 2.438 10.938C2.72933 10.646 3.08333 10.5 3.5 10.5C3.91667 10.5 4.27067 10.646 4.562 10.938C4.854 11.2293 5 11.5833 5 12C5 12.4167 4.854 12.7707 4.562 13.062C4.27067 13.354 3.91667 13.5 3.5 13.5ZM3.5 19.5C3.08333 19.5 2.72933 19.354 2.438 19.062C2.146 18.7707 2 18.4167 2 18C2 17.5833 2.146 17.2293 2.438 16.938C2.72933 16.646 3.08333 16.5 3.5 16.5C3.91667 16.5 4.27067 16.646 4.562 16.938C4.854 17.2293 5 17.5833 5 18C5 18.4167 4.854 18.7707 4.562 19.062C4.27067 19.354 3.91667 19.5 3.5 19.5ZM8 7C7.71667 7 7.479 6.90433 7.287 6.713C7.09567 6.521 7 6.28333 7 6C7 5.71667 7.09567 5.479 7.287 5.287C7.479 5.09567 7.71667 5 8 5H20V7H8ZM8 13C7.71667 13 7.479 12.904 7.287 12.712C7.09567 12.5207 7 12.2833 7 12C7 11.7167 7.09567 11.479 7.287 11.287C7.479 11.0957 7.71667 11 8 11H18C17.05 11 16.1583 11.179 15.325 11.537C14.4917 11.8957 13.7583 12.3833 13.125 13H8ZM11.075 19H8C7.71667 19 7.479 18.904 7.287 18.712C7.09567 18.5207 7 18.2833 7 18C7 17.7167 7.09567 17.4793 7.287 17.288C7.479 17.096 7.71667 17 8 17H11.075C11.025 17.3333 11 17.6667 11 18C11 18.3333 11.025 18.6667 11.075 19ZM18 23C16.6167 23 15.4377 22.5127 14.463 21.538C13.4877 20.5627 13 19.3833 13 18C13 16.6167 13.4877 15.4373 14.463 14.462C15.4377 13.4873 16.6167 13 18 13C19.3833 13 20.5627 13.4873 21.538 14.462C22.5127 15.4373 23 16.6167 23 18C23 19.3833 22.5127 20.5627 21.538 21.538C20.5627 22.5127 19.3833 23 18 23ZM17.5 18.5V20.5C17.5 20.6333 17.55 20.75 17.65 20.85C17.75 20.95 17.8667 21 18 21C18.1333 21 18.25 20.95 18.35 20.85C18.45 20.75 18.5 20.6333 18.5 20.5V18.5H20.5C20.6333 18.5 20.75 18.45 20.85 18.35C20.95 18.25 21 18.1333 21 18C21 17.8667 20.95 17.75 20.85 17.65C20.75 17.55 20.6333 17.5 20.5 17.5H18.5V15.5C18.5 15.3667 18.45 15.25 18.35 15.15C18.25 15.05 18.1333 15 18 15C17.8667 15 17.75 15.05 17.65 15.15C17.55 15.25 17.5 15.3667 17.5 15.5V17.5H15.5C15.3667 17.5 15.25 17.55 15.15 17.65C15.05 17.75 15 17.8667 15 18C15 18.1333 15.05 18.25 15.15 18.35C15.25 18.45 15.3667 18.5 15.5 18.5H17.5Z" fill="white"/>
</g>
</svg>
