<svg width="21" height="19" viewBox="0 0 21 19" fill="none" xmlns="http://www.w3.org/2000/svg">
<path d="M1.23759 16.9L2.57759 17.46V8.43L0.147594 14.29C-0.262406 15.31 0.207594 16.48 1.23759 16.9ZM20.7376 13.2L15.7776 1.25C15.6311 0.887546 15.3816 0.575978 15.0599 0.353818C14.7382 0.131658 14.3584 0.00864917 13.9676 0C13.7076 0 13.4376 0.0400001 13.1776 0.15L5.80759 3.2C5.45188 3.35096 5.14693 3.60077 4.92892 3.91982C4.7109 4.23886 4.58897 4.61375 4.57759 5C4.56759 5.25 4.61759 5.54 4.70759 5.8L9.70759 17.75C9.99759 18.53 10.7376 18.99 11.5176 19C11.7776 19 12.0376 18.95 12.2876 18.85L19.6476 15.8C20.1368 15.5997 20.5265 15.2132 20.7309 14.7257C20.9353 14.2381 20.9377 13.6893 20.7376 13.2ZM6.58759 6C6.32238 6 6.06802 5.89464 5.88049 5.70711C5.69295 5.51957 5.58759 5.26522 5.58759 5C5.58759 4.73478 5.69295 4.48043 5.88049 4.29289C6.06802 4.10536 6.32238 4 6.58759 4C7.13759 4 7.58759 4.45 7.58759 5C7.58759 5.55 7.13759 6 6.58759 6ZM4.58759 17C4.58759 17.5304 4.79831 18.0391 5.17338 18.4142C5.54845 18.7893 6.05716 19 6.58759 19H8.03759L4.58759 10.66V17Z" fill="white"/>
</svg>
