<svg width="21" height="21" viewBox="0 0 21 21" fill="none" xmlns="http://www.w3.org/2000/svg">
<path d="M10.5 0C8.4233 0 6.39323 0.615814 4.66652 1.76957C2.9398 2.92332 1.59399 4.5632 0.79927 6.48182C0.0045495 8.40045 -0.203386 10.5116 0.201759 12.5484C0.606904 14.5852 1.60693 16.4562 3.07538 17.9246C4.54383 19.3931 6.41476 20.3931 8.45156 20.7982C10.4884 21.2034 12.5996 20.9955 14.5182 20.2007C16.4368 19.406 18.0767 18.0602 19.2304 16.3335C20.3842 14.6068 21 12.5767 21 10.5C20.9968 7.7162 19.8896 5.04733 17.9211 3.07889C15.9527 1.11044 13.2838 0.00317604 10.5 0ZM10.5 19.5C8.11306 19.5 5.82387 18.5518 4.13604 16.864C2.44822 15.1761 1.5 12.8869 1.5 10.5C1.5 8.11305 2.44822 5.82387 4.13604 4.13604C5.82387 2.44821 8.11306 1.5 10.5 1.5V10.5L16.8608 16.8608C16.0266 17.6979 15.0352 18.362 13.9437 18.8149C12.8521 19.2679 11.6818 19.5007 10.5 19.5Z" fill="#D7E161"/>
</svg>
