<svg width="19" height="17" viewBox="0 0 19 17" fill="none" xmlns="http://www.w3.org/2000/svg">
<path d="M15.8334 5.66659V4.0477L12.6666 0H6.33341L3.16659 4.0477V5.66659L0 9.71429V17H19V9.71429L15.8334 5.66659ZM15.8334 8.25811L16.9729 9.71429H15.8334V8.25811ZM7.09412 1.61913H11.9059L13.8054 4.0477H5.1946L7.09412 1.61913ZM14.25 5.66659V9.71429H10.2916V5.66659H14.25ZM4.75 5.66659H8.70841V9.71429H4.75V5.66659ZM3.16659 8.25811V9.71429H2.02706L3.16659 8.25811ZM5.9375 15.3809H1.58341V11.3334H5.9375V15.3809ZM11.4791 15.3809H7.52091V11.3334H11.4791V15.3809ZM17.4166 15.3809H13.0625V11.3334H17.4166V15.3809Z" fill="white"/>
</svg>
