<svg width="24" height="24" viewBox="0 0 24 24" fill="none" xmlns="http://www.w3.org/2000/svg">
<g clip-path="url(#clip0_636_1487)">
<path d="M8.99967 21.3333C9.92015 21.3333 10.6663 20.5871 10.6663 19.6667C10.6663 18.7462 9.92015 18 8.99967 18C8.0792 18 7.33301 18.7462 7.33301 19.6667C7.33301 20.5871 8.0792 21.3333 8.99967 21.3333Z" fill="white"/>
<path d="M17.6667 21.3333C18.5871 21.3333 19.3333 20.5871 19.3333 19.6667C19.3333 18.7462 18.5871 18 17.6667 18C16.7462 18 16 18.7462 16 19.6667C16 20.5871 16.7462 21.3333 17.6667 21.3333Z" fill="white"/>
<path d="M20.0003 9.0001C18.6742 9.0001 17.4025 8.47331 16.4648 7.53563C15.5271 6.59795 15.0003 5.32618 15.0003 4.0001H6.14032L5.84032 3.04677C5.80736 2.9444 5.75014 2.85153 5.67352 2.77608C5.5969 2.70062 5.50317 2.64482 5.40032 2.61343L2.66698 1.77343C2.58294 1.74761 2.49463 1.73859 2.4071 1.74689C2.31956 1.75519 2.23453 1.78065 2.15683 1.82182C1.99993 1.90496 1.88248 2.04703 1.83032 2.21677C1.77816 2.3865 1.79556 2.57001 1.87871 2.72692C1.96185 2.88382 2.10391 3.00127 2.27365 3.05343L4.66698 3.78677L7.72032 13.4334L6.63365 14.3268L6.54698 14.4134C6.27825 14.7246 6.126 15.1195 6.11627 15.5305C6.10654 15.9416 6.23994 16.3432 6.49365 16.6668C6.67536 16.8877 6.90626 17.0631 7.16788 17.1789C7.4295 17.2946 7.71458 17.3476 8.00032 17.3334H19.127C19.3038 17.3334 19.4734 17.2632 19.5984 17.1382C19.7234 17.0131 19.7937 16.8436 19.7937 16.6668C19.7937 16.49 19.7234 16.3204 19.5984 16.1954C19.4734 16.0703 19.3038 16.0001 19.127 16.0001H7.89365C7.81688 15.9975 7.74209 15.9751 7.67649 15.9351C7.61089 15.8952 7.55671 15.839 7.51918 15.7719C7.48165 15.7049 7.46204 15.6293 7.46224 15.5525C7.46243 15.4757 7.48244 15.4003 7.52032 15.3334L9.12698 14.0001H19.4137C19.5659 14.0045 19.7152 13.9567 19.8365 13.8645C19.9578 13.7723 20.0438 13.6413 20.0803 13.4934L21.2203 8.82677C20.8224 8.93469 20.4126 8.99291 20.0003 9.0001Z" fill="white"/>
<path d="M20.0003 7.33341C21.8413 7.33341 23.3337 5.84103 23.3337 4.00008C23.3337 2.15913 21.8413 0.666748 20.0003 0.666748C18.1594 0.666748 16.667 2.15913 16.667 4.00008C16.667 5.84103 18.1594 7.33341 20.0003 7.33341Z" fill="white"/>
</g>
<defs>
<clipPath id="clip0_636_1487">
<rect width="24" height="24" fill="white"/>
</clipPath>
</defs>
</svg>
