<svg xmlns="http://www.w3.org/2000/svg" width="40" height="50.385" viewBox="0 0 40 50.385">
  <g id="_000000ff" data-name="#000000ff" transform="translate(-53.974)">
    <path id="Path_58091" data-name="Path 58091" d="M59.414,0H80.772a3.861,3.861,0,0,1,.553.443Q87.409,6.832,93.5,13.216a1.494,1.494,0,0,1,.473,1.08v29.19a7.158,7.158,0,0,1-.321,2.279,6.718,6.718,0,0,1-4.223,4.272,7.141,7.141,0,0,1-2.42.347q-12.868,0-25.735,0a8.123,8.123,0,0,1-2.482-.262,6.7,6.7,0,0,1-4.554-4.553,11.113,11.113,0,0,1-.261-3.267q0-17.848,0-35.7a6.638,6.638,0,0,1,1.571-4.331A6.843,6.843,0,0,1,59.414,0m-.032,2.544a4.229,4.229,0,0,0-2.766,2.764,6.1,6.1,0,0,0-.2,1.992q0,18.14,0,36.279a4.263,4.263,0,0,0,4.373,4.366q13.21,0,26.421,0a4.251,4.251,0,0,0,4.323-4.364q0-14.1,0-28.191c-2.4,0-4.791.007-7.186-.006a5.347,5.347,0,0,1-4.77-3.123,5.441,5.441,0,0,1-.482-2.3q0-3.808,0-7.617-8.909,0-17.818,0a5.8,5.8,0,0,0-1.893.2M81.534,4.21c0,1.948-.007,3.9.006,5.845a2.907,2.907,0,0,0,1.615,2.584,3.261,3.261,0,0,0,1.481.311h5.223Q85.7,8.575,81.534,4.21Z" fill="#007fe4"/>
    <path id="Path_58092" data-name="Path 58092" d="M179.171,170.1a1.7,1.7,0,0,1,1.263-.751,1.436,1.436,0,0,1,1.006.535q3.492,3.758,6.991,7.509A1.216,1.216,0,0,1,187,179.308a3.071,3.071,0,0,1-.72-.66q-2.322-2.5-4.644-4.992,0,6.453,0,12.907a1.864,1.864,0,0,1-.143.949,1.245,1.245,0,0,1-1.059.673,1.261,1.261,0,0,1-1.213-.984,7.868,7.868,0,0,1-.028-1.034q0-6.256,0-12.513-2.427,2.615-4.857,5.229a1.307,1.307,0,0,1-1.97.164,1.276,1.276,0,0,1-.2-1.35,3.423,3.423,0,0,1,.572-.7Q175.957,173.547,179.171,170.1Z" transform="translate(-106.445 -152.647)" fill="#007fe4"/>
    <path id="Path_58093" data-name="Path 58093" d="M143.545,400.981a1.636,1.636,0,0,1,.464-.059q9.761,0,19.522,0a1.9,1.9,0,0,1,1.024.159,1.23,1.23,0,0,1,.652,1.037,1.252,1.252,0,0,1-1.277,1.242q-9.965,0-19.929,0a1.219,1.219,0,0,1-.456-2.378Z" transform="translate(-79.971 -361.391)" fill="#007fe4"/>
  </g>
</svg>
