<svg width="24" height="24" viewBox="0 0 24 24" fill="none" xmlns="http://www.w3.org/2000/svg">
<path d="M21.97 2.33004C21.5981 1.90981 21.1407 1.5738 20.6286 1.34444C20.1164 1.11508 19.5612 0.997667 19 1.00004C18.4745 0.999377 17.9541 1.10239 17.4685 1.30318C16.9829 1.50396 16.5417 1.79857 16.1701 2.17014C15.7985 2.54171 15.5039 2.98292 15.3031 3.46852C15.1024 3.95412 14.9993 4.47456 15 5.00004C15 5.75004 15.21 6.46004 15.58 7.06004C15.78 7.40004 16.04 7.71004 16.34 7.97004C17.04 8.61004 17.97 9.00004 19 9.00004C19.44 9.00004 19.86 8.93004 20.25 8.79004C21.17 8.50004 21.94 7.87004 22.42 7.06004C22.63 6.72004 22.79 6.33004 22.88 5.93004C22.96 5.63004 23 5.32004 23 5.00004C23 3.98004 22.61 3.04004 21.97 2.33004V2.33004ZM20.49 5.73004H19.75V6.51004C19.75 6.92004 19.41 7.26004 19 7.26004C18.59 7.26004 18.25 6.92004 18.25 6.51004V5.73004H17.51C17.1 5.73004 16.76 5.39004 16.76 4.98004C16.76 4.57004 17.1 4.23004 17.51 4.23004H18.25V3.52004C18.25 3.11004 18.59 2.77004 19 2.77004C19.41 2.77004 19.75 3.11004 19.75 3.52004V4.23004H20.49C20.6889 4.23004 20.8797 4.30905 21.0203 4.4497C21.161 4.59036 21.24 4.78112 21.24 4.98004C21.24 5.17895 21.161 5.36971 21.0203 5.51037C20.8797 5.65102 20.6889 5.73004 20.49 5.73004Z" fill="white"/>
<path d="M22 12C22 10.69 21.75 9.43004 21.28 8.28004C20.97 8.50004 20.62 8.67004 20.25 8.79004C20.14 8.83004 20.03 8.86004 19.91 8.89004C20.5133 10.4217 20.6577 12.0959 20.3256 13.7082C19.9936 15.3206 19.1994 16.8014 18.04 17.97C17.75 17.6 17.38 17.26 16.94 16.97C14.23 15.15 9.79 15.15 7.06 16.97C6.62 17.26 6.26 17.6 5.96 17.97C4.38481 16.3823 3.50064 14.2366 3.5 12C3.5 7.31004 7.31 3.50004 12 3.50004C13.09 3.50004 14.14 3.71004 15.1 4.09004C15.13 3.97004 15.16 3.86004 15.2 3.74004C15.32 3.37004 15.49 3.03004 15.72 2.72004C14.5385 2.24082 13.275 1.99627 12 2.00004C6.49 2.00004 2 6.49004 2 12C2 14.9 3.25 17.51 5.23 19.34C5.23 19.35 5.23 19.35 5.22 19.36C5.32 19.46 5.44 19.54 5.54 19.63C5.6 19.68 5.65 19.73 5.71 19.77C5.89 19.92 6.09 20.06 6.28 20.2L6.48 20.34C6.67 20.47 6.87 20.59 7.08 20.7C7.15 20.74 7.23 20.79 7.3 20.83C7.5 20.94 7.71 21.04 7.93 21.13C8.01 21.17 8.09 21.21 8.17 21.24C8.39 21.33 8.61 21.41 8.83 21.48C8.91 21.51 8.99 21.54 9.07 21.56C9.31 21.63 9.55 21.69 9.79 21.75C9.86 21.77 9.93 21.79 10.01 21.8C10.29 21.86 10.57 21.9 10.86 21.93C10.9 21.93 10.94 21.94 10.98 21.95C11.32 21.98 11.66 22 12 22C12.34 22 12.68 21.98 13.01 21.95C13.05 21.95 13.09 21.94 13.13 21.93C13.42 21.9 13.7 21.86 13.98 21.8C14.05 21.79 14.12 21.76 14.2 21.75C14.44 21.69 14.69 21.64 14.92 21.56C15 21.53 15.08 21.5 15.16 21.48C15.38 21.4 15.61 21.33 15.82 21.24C15.9 21.21 15.98 21.17 16.06 21.13C16.27 21.04 16.48 20.94 16.69 20.83C16.77 20.79 16.84 20.74 16.91 20.7C17.11 20.58 17.31 20.47 17.51 20.34C17.58 20.3 17.64 20.25 17.71 20.2C17.91 20.06 18.1 19.92 18.28 19.77C18.34 19.72 18.39 19.67 18.45 19.63C18.56 19.54 18.67 19.45 18.77 19.36C18.77 19.35 18.77 19.35 18.76 19.34C20.75 17.51 22 14.9 22 12Z" fill="white"/>
<path d="M12 6.92993C9.93 6.92993 8.25 8.60993 8.25 10.6799C8.25 12.7099 9.84 14.3599 11.95 14.4199H12.13C13.1007 14.388 14.021 13.98 14.6965 13.2822C15.372 12.5843 15.7497 11.6512 15.75 10.6799C15.75 8.60993 14.07 6.92993 12 6.92993Z" fill="white"/>
</svg>
