<svg width="24" height="24" viewBox="0 0 24 24" fill="none" xmlns="http://www.w3.org/2000/svg">
<path d="M11.9995 7.125C12.8154 7.125 13.6129 7.36693 14.2913 7.82019C14.9696 8.27345 15.4983 8.91769 15.8106 9.67143C16.1228 10.4252 16.2045 11.2546 16.0453 12.0547C15.8861 12.8549 15.4933 13.5899 14.9164 14.1668C14.3395 14.7437 13.6045 15.1366 12.8043 15.2957C12.0041 15.4549 11.1747 15.3732 10.421 15.061C9.66723 14.7488 9.023 14.2201 8.56974 13.5417C8.11648 12.8634 7.87455 12.0658 7.87455 11.25C7.87455 10.156 8.30915 9.10677 9.08273 8.33318C9.85632 7.5596 10.9055 7.125 11.9995 7.125ZM21.6745 6.9375C21.6082 7.05251 21.5124 7.14783 21.3971 7.21371C21.2818 7.2796 21.1511 7.31369 21.0183 7.3125C20.8862 7.31357 20.7563 7.27786 20.6433 7.20938L20.212 6.95625C20.0019 7.1364 19.7604 7.27624 19.4995 7.36875V7.875C19.4995 8.07391 19.4205 8.26468 19.2799 8.40533C19.1392 8.54598 18.9485 8.625 18.7495 8.625C18.5506 8.625 18.3599 8.54598 18.2192 8.40533C18.0786 8.26468 17.9995 8.07391 17.9995 7.875V7.36875C17.7387 7.27624 17.4972 7.1364 17.287 6.95625L16.8558 7.20938C16.7428 7.27786 16.6129 7.31357 16.4808 7.3125C16.3165 7.31151 16.1571 7.25662 16.0271 7.15626C15.8971 7.0559 15.8036 6.91562 15.761 6.75697C15.7184 6.59832 15.729 6.43008 15.7913 6.27808C15.8536 6.12609 15.9641 5.99875 16.1058 5.91562L16.537 5.6625C16.5102 5.52668 16.4976 5.38843 16.4995 5.25C16.4976 5.11157 16.5102 4.97332 16.537 4.8375L16.1058 4.58438C16.0194 4.53661 15.9434 4.47204 15.8822 4.39447C15.8211 4.3169 15.7761 4.22789 15.7499 4.13268C15.7237 4.03746 15.7168 3.93797 15.7296 3.84005C15.7425 3.74213 15.7747 3.64777 15.8245 3.5625C15.9262 3.39076 16.0914 3.26594 16.2844 3.21506C16.4774 3.16418 16.6827 3.19133 16.8558 3.29062L17.287 3.54375C17.4972 3.3636 17.7387 3.22376 17.9995 3.13125V2.625C17.9995 2.42609 18.0786 2.23532 18.2192 2.09467C18.3599 1.95402 18.5506 1.875 18.7495 1.875C18.9485 1.875 19.1392 1.95402 19.2799 2.09467C19.4205 2.23532 19.4995 2.42609 19.4995 2.625V3.13125C19.7604 3.22376 20.0019 3.3636 20.212 3.54375L20.6433 3.29062C20.8164 3.19133 21.0217 3.16418 21.2147 3.21506C21.4077 3.26594 21.5729 3.39076 21.6745 3.5625C21.7244 3.64777 21.7566 3.74213 21.7694 3.84005C21.7823 3.93797 21.7754 4.03746 21.7492 4.13268C21.7229 4.22789 21.678 4.3169 21.6169 4.39447C21.5557 4.47204 21.4797 4.53661 21.3933 4.58438L20.962 4.8375C20.9889 4.97332 21.0014 5.11157 20.9995 5.25C21.0014 5.38843 20.9889 5.52668 20.962 5.6625L21.3933 5.91562C21.4797 5.96339 21.5557 6.02796 21.6169 6.10553C21.678 6.1831 21.7229 6.27211 21.7492 6.36732C21.7754 6.46254 21.7823 6.56203 21.7694 6.65995C21.7566 6.75787 21.7244 6.85223 21.6745 6.9375ZM18.7495 6C18.8979 6 19.0429 5.95601 19.1662 5.8736C19.2896 5.79119 19.3857 5.67406 19.4425 5.53701C19.4992 5.39997 19.5141 5.24917 19.4851 5.10368C19.4562 4.9582 19.3848 4.82456 19.2799 4.71967C19.175 4.61478 19.0414 4.54335 18.8959 4.51441C18.7504 4.48547 18.5996 4.50032 18.4625 4.55709C18.3255 4.61386 18.2084 4.70999 18.1259 4.83332C18.0435 4.95666 17.9995 5.10166 17.9995 5.25C17.9995 5.44891 18.0786 5.63968 18.2192 5.78033C18.3599 5.92098 18.5506 6 18.7495 6ZM20.8495 10.1812C20.6536 10.2048 20.4749 10.3046 20.352 10.459C20.2292 10.6134 20.1722 10.8101 20.1933 11.0063C20.2307 11.3362 20.2495 11.668 20.2495 12C20.2523 14.0188 19.5114 15.9678 18.1683 17.475C17.5612 16.6041 16.7789 15.8697 15.8714 15.3187C14.8295 16.3169 13.4424 16.8741 11.9995 16.8741C10.5567 16.8741 9.16956 16.3169 8.12767 15.3187C7.22024 15.8697 6.4379 16.6041 5.8308 17.475C4.77593 16.2859 4.08702 14.8175 3.84692 13.2462C3.60682 11.6749 3.82574 10.0677 4.47736 8.61791C5.12899 7.1681 6.18557 5.93739 7.52003 5.0738C8.8545 4.21022 10.41 3.75052 11.9995 3.75C12.2563 3.74846 12.5129 3.76097 12.7683 3.7875C12.8668 3.79612 12.966 3.78525 13.0603 3.75552C13.1546 3.72579 13.2421 3.67778 13.3178 3.61423C13.3936 3.55068 13.4561 3.47284 13.5017 3.38514C13.5474 3.29745 13.5753 3.20162 13.5839 3.10312C13.5925 3.00463 13.5817 2.90541 13.5519 2.81112C13.5222 2.71682 13.4742 2.62931 13.4107 2.55357C13.3471 2.47784 13.2693 2.41536 13.1816 2.3697C13.0939 2.32405 12.998 2.29612 12.8995 2.2875C12.6089 2.25937 12.2995 2.25 11.9995 2.25C10.0349 2.25068 8.11638 2.84484 6.49526 3.95463C4.87414 5.06441 3.62609 6.63804 2.91466 8.4693C2.20323 10.3006 2.06162 12.304 2.50837 14.2172C2.95513 16.1303 3.96941 17.8638 5.4183 19.1906L5.54017 19.3031C7.3226 20.8796 9.62 21.7498 11.9995 21.7498C14.3791 21.7498 16.6765 20.8796 18.4589 19.3031L18.5808 19.1906C19.5803 18.2786 20.3784 17.1679 20.924 15.9297C21.4697 14.6915 21.7508 13.3531 21.7495 12C21.7513 11.6115 21.7294 11.2233 21.6839 10.8375C21.6723 10.7396 21.6415 10.6449 21.5933 10.5589C21.545 10.473 21.4803 10.3973 21.4028 10.3364C21.3253 10.2754 21.2366 10.2303 21.1416 10.2037C21.0467 10.1771 20.9474 10.1695 20.8495 10.1812Z" fill="#233A61"/>
</svg>
