<svg width="24" height="24" viewBox="0 0 24 24" fill="none" xmlns="http://www.w3.org/2000/svg">
<path d="M16.125 11.25C16.125 12.0658 15.8831 12.8634 15.4298 13.5417C14.9766 14.2201 14.3323 14.7488 13.5786 15.061C12.8248 15.3732 11.9954 15.4549 11.1953 15.2957C10.3951 15.1366 9.66008 14.7437 9.08319 14.1668C8.5063 13.5899 8.11343 12.8549 7.95427 12.0547C7.7951 11.2546 7.87679 10.4252 8.189 9.67143C8.50121 8.91769 9.02992 8.27345 9.70828 7.82019C10.3866 7.36693 11.1842 7.125 12 7.125C13.094 7.125 14.1432 7.5596 14.9168 8.33318C15.6904 9.10677 16.125 10.156 16.125 11.25ZM21.75 12C21.75 13.9284 21.1782 15.8134 20.1068 17.4168C19.0355 19.0202 17.5127 20.2699 15.7312 21.0078C13.9496 21.7458 11.9892 21.9389 10.0979 21.5627C8.20656 21.1865 6.46928 20.2579 5.10571 18.8943C3.74215 17.5307 2.81355 15.7934 2.43735 13.9021C2.06114 12.0108 2.25422 10.0504 2.99218 8.26884C3.73013 6.48726 4.97982 4.96451 6.58319 3.89317C8.18657 2.82183 10.0716 2.25 12 2.25C14.5843 2.25496 17.0614 3.28378 18.8888 5.11118C20.7162 6.93859 21.745 9.41566 21.75 12ZM20.25 12C20.2505 10.6638 19.9264 9.34751 19.3057 8.16427C18.6849 6.98103 17.7861 5.96627 16.6864 5.20725C15.5867 4.44823 14.3192 3.96767 12.9927 3.80689C11.6662 3.64611 10.3205 3.80993 9.07139 4.28425C7.82223 4.75858 6.70697 5.52921 5.82151 6.52989C4.93606 7.53057 4.30691 8.73134 3.98817 10.029C3.66943 11.3266 3.67064 12.6822 3.99169 13.9792C4.31274 15.2762 4.94402 16.4759 5.83125 17.475C6.43836 16.6041 7.22069 15.8697 8.12813 15.3187C9.17002 16.3169 10.5571 16.8741 12 16.8741C13.4429 16.8741 14.83 16.3169 15.8719 15.3187C16.7793 15.8697 17.5616 16.6041 18.1688 17.475C19.5118 15.9678 20.2528 14.0188 20.25 12Z" fill="#233A61"/>
</svg>
