<svg width="21" height="21" viewBox="0 0 21 21" fill="none" xmlns="http://www.w3.org/2000/svg">
<path d="M16.4134 10.5002C16.4134 13.7658 13.7661 16.4131 10.5005 16.4131C7.23491 16.4131 4.58765 13.7658 4.58765 10.5002C4.58765 7.23463 7.23491 4.58736 10.5005 4.58736C13.7661 4.58736 16.4134 7.23463 16.4134 10.5002Z" stroke="#97989D" stroke-width="1.5" stroke-miterlimit="10" stroke-linecap="round" stroke-linejoin="round"/>
<path d="M13.4566 8.7267L9.90885 12.2744L7.5437 9.90927" stroke="#97989D" stroke-width="1.5" stroke-miterlimit="10" stroke-linecap="round" stroke-linejoin="round"/>
<path d="M9.73314 1.28234C10.1751 0.905886 10.8249 0.905886 11.2669 1.28234L12.8035 2.63855L15.404 2.43732C15.9828 2.39254 16.5085 2.77447 16.6448 3.33879L17.1661 5.49801L19.4382 6.85805C19.9328 7.16205 20.1336 7.78006 19.9121 8.31668L19.0145 10.4917L19.9121 12.6667C20.1336 13.2034 19.9328 13.8214 19.4382 14.1254L17.1661 15.4854L16.6448 17.6447C16.5085 18.2089 15.9828 18.5909 15.404 18.5461L12.829 18.3468L11.2669 19.7177C10.8249 20.0941 10.1751 20.0941 9.73314 19.7177L8.17104 18.3468L5.59603 18.5461C5.0172 18.5909 4.49147 18.2089 4.35523 17.6447L3.83179 15.4769L1.56353 14.1254C1.0689 13.8214 0.868104 13.2034 1.0896 12.6667L1.98717 10.4917L1.0896 8.31668C0.868104 7.78006 1.0689 7.16205 1.56353 6.85805L3.63737 5.62601L4.35523 3.33879C4.49147 2.77447 5.0172 2.39254 5.59603 2.43732L8.19651 2.63855L9.73314 1.28234Z" stroke="#97989D" stroke-width="1.5" stroke-miterlimit="10" stroke-linecap="round" stroke-linejoin="round"/>
</svg>
