<svg width="46" height="41" viewBox="0 0 46 41" fill="none" xmlns="http://www.w3.org/2000/svg">
<path d="M38.3335 13.6665V9.7621L30.6665 0H15.3335L7.66647 9.7621V13.6665L0 23.4286V41H46V23.4286L38.3335 13.6665ZM38.3335 19.9166L41.0924 23.4286H38.3335V19.9166ZM17.1752 3.90496H28.8248L33.4236 9.7621H12.5764L17.1752 3.90496ZM34.5 13.6665V23.4286H24.9165V13.6665H34.5ZM11.5 13.6665H21.0835V23.4286H11.5V13.6665ZM7.66647 19.9166V23.4286H4.90762L7.66647 19.9166ZM14.375 37.095H3.83352V27.3335H14.375V37.095ZM27.7915 37.095H18.2085V27.3335H27.7915V37.095ZM42.1665 37.095H31.625V27.3335H42.1665V37.095Z" fill="#233A61"/>
</svg>
