<?xml version="1.0" encoding="utf-8"?>
<!-- Generator: Adobe Illustrator 26.5.0, SVG Export Plug-In . SVG Version: 6.00 Build 0)  -->
<svg version="1.1" id="Layer_1" xmlns="http://www.w3.org/2000/svg" xmlns:xlink="http://www.w3.org/1999/xlink" x="0px" y="0px"
	 viewBox="0 0 224.88 150" style="enable-background:new 0 0 224.88 150;" xml:space="preserve">
<style type="text/css">
	.st0{fill:#0C0880;}
	.st1{fill:#FF9A33;}
	.st2{fill:#148907;}
	.st3{fill:#D7AF5E;}
	.st4{fill:#7C4799;}
</style>
<g>
	<g>
		<path class="st0" d="M59.38,80.84V52.08h12.4c1.4,0,2.7,0.29,3.89,0.87c1.19,0.58,2.21,1.34,3.06,2.27c0.85,0.93,1.52,2,2,3.2
			c0.49,1.2,0.73,2.41,0.73,3.63c0,1.27-0.23,2.5-0.69,3.71c-0.46,1.2-1.1,2.27-1.92,3.2s-1.82,1.67-3,2.23
			c-1.17,0.55-2.46,0.83-3.87,0.83h-4.7v8.83H59.38z M67.28,65.13h4.17c0.49,0,0.94-0.22,1.36-0.67c0.42-0.45,0.63-1.25,0.63-2.41
			c0-1.19-0.24-2-0.73-2.43c-0.49-0.43-0.97-0.65-1.46-0.65h-3.97V65.13z"/>
	</g>
	<g>
		<path class="st0" d="M92.59,80.84V52.08h7.9v28.76H92.59z"/>
	</g>
	<g>
		<path class="st0" d="M130.95,61.48c-0.81-0.49-1.65-0.92-2.51-1.3c-0.73-0.32-1.55-0.63-2.45-0.91c-0.91-0.28-1.79-0.43-2.65-0.43
			c-0.7,0-1.26,0.11-1.68,0.32c-0.42,0.22-0.63,0.58-0.63,1.09c0,0.38,0.12,0.69,0.36,0.93c0.24,0.24,0.59,0.47,1.05,0.67
			c0.46,0.2,1.02,0.4,1.68,0.59c0.66,0.19,1.41,0.42,2.25,0.69c1.32,0.4,2.52,0.85,3.58,1.34c1.07,0.49,1.98,1.06,2.73,1.72
			c0.76,0.66,1.34,1.47,1.74,2.41c0.41,0.95,0.61,2.09,0.61,3.44c0,1.73-0.32,3.18-0.95,4.35s-1.47,2.11-2.51,2.82
			c-1.04,0.7-2.21,1.21-3.52,1.52c-1.31,0.31-2.63,0.47-3.95,0.47c-1.05,0-2.13-0.08-3.24-0.24s-2.21-0.39-3.3-0.69
			c-1.09-0.3-2.15-0.65-3.16-1.05c-1.01-0.41-1.95-0.86-2.82-1.38l3.4-6.93c0.94,0.59,1.93,1.12,2.96,1.58
			c0.86,0.41,1.84,0.77,2.94,1.09c1.09,0.32,2.21,0.49,3.34,0.49c0.86,0,1.46-0.11,1.8-0.34c0.34-0.23,0.51-0.53,0.51-0.91
			c0-0.41-0.17-0.75-0.51-1.03c-0.34-0.28-0.8-0.53-1.4-0.75c-0.59-0.22-1.28-0.43-2.05-0.65c-0.77-0.22-1.59-0.47-2.45-0.77
			c-1.27-0.43-2.36-0.9-3.28-1.4c-0.92-0.5-1.67-1.07-2.27-1.7c-0.59-0.63-1.03-1.36-1.32-2.17c-0.28-0.81-0.43-1.74-0.43-2.8
			c0-1.59,0.29-3,0.87-4.21c0.58-1.22,1.37-2.23,2.37-3.04c1-0.81,2.14-1.42,3.42-1.84c1.28-0.42,2.64-0.63,4.07-0.63
			c1.05,0,2.08,0.1,3.08,0.3c1,0.2,1.96,0.46,2.9,0.77c0.93,0.31,1.8,0.65,2.61,1.01c0.81,0.36,1.54,0.71,2.19,1.03L130.95,61.48z"
			/>
	</g>
	<g>
		<path class="st0" d="M146.62,80.84V52.08h7.9v21.87h13.04v6.89H146.62z"/>
	</g>
	<path class="st1" d="M70.42,93.29c-2.9,0-5.25,2.35-5.25,5.25s2.35,5.25,5.25,5.25c2.9,0,5.25-2.35,5.25-5.25
		S73.32,93.29,70.42,93.29"/>
	<path class="st2" d="M96.54,93.29c-2.9,0-5.25,2.35-5.25,5.25s2.35,5.25,5.25,5.25c2.9,0,5.25-2.35,5.25-5.25
		S99.44,93.29,96.54,93.29"/>
	<path class="st3" d="M123.31,93.29c-2.9,0-5.25,2.35-5.25,5.25s2.35,5.25,5.25,5.25c2.9,0,5.25-2.35,5.25-5.25
		S126.21,93.29,123.31,93.29"/>
	<path class="st4" d="M157.09,93.29c-2.9,0-5.25,2.35-5.25,5.25s2.35,5.25,5.25,5.25c2.9,0,5.25-2.35,5.25-5.25
		S159.99,93.29,157.09,93.29"/>
</g>
</svg>
