<?xml version="1.0" encoding="UTF-8"?>
<!DOCTYPE svg PUBLIC "-//W3C//DTD SVG 1.1//EN" "http://www.w3.org/Graphics/SVG/1.1/DTD/svg11.dtd">
<!-- Creator: CorelDRAW 2019 (64-Bit) -->
<svg xmlns="http://www.w3.org/2000/svg" xml:space="preserve" width="0.987563in" height="0.474331in" version="1.1" shape-rendering="geometricPrecision" text-rendering="geometricPrecision" image-rendering="optimizeQuality" fill-rule="evenodd" clip-rule="evenodd"
viewBox="0 0 419.12 201.3"
 xmlns:xlink="http://www.w3.org/1999/xlink"
 xmlns:xodm="http://www.corel.com/coreldraw/odm/2003">
 <g id="Layer_x0020_1">
  <metadata id="CorelCorpID_0Corel-Layer"/>
  <g id="_1445309688704">
   <g id="_2431114184784">
    <path fill="white" d="M-0 112.39l0 -111.42 48.04 0c5.42,0 10.46,1.12 15.07,3.37 4.61,2.25 8.56,5.19 11.85,8.79 3.29,3.6 5.89,7.75 7.75,12.4 1.9,4.65 2.83,9.34 2.83,14.06 0,4.92 -0.89,9.69 -2.67,14.37 -1.78,4.65 -4.26,8.79 -7.44,12.4 -3.18,3.6 -7.05,6.47 -11.62,8.64 -4.53,2.13 -9.53,3.21 -14.99,3.21l-18.21 0 0 34.21 -30.61 0 0 -0.04 0 0zm30.61 -60.86l16.16 0c1.9,0 3.64,-0.85 5.27,-2.59 1.63,-1.74 2.44,-4.84 2.44,-9.34 0,-4.61 -0.93,-7.75 -2.83,-9.41 -1.9,-1.67 -3.76,-2.52 -5.66,-2.52l-15.38 0 0 23.86 0 0z"/>
    <polygon fill="white" points="128.67,112.39 128.67,0.97 159.27,0.97 159.27,112.39 "/>
    <path fill="white" d="M277.28 37.39c-3.14,-1.9 -6.39,-3.56 -9.72,-5.04 -2.83,-1.24 -6,-2.44 -9.49,-3.53 -3.53,-1.09 -6.94,-1.67 -10.27,-1.67 -2.71,0 -4.88,0.43 -6.51,1.24 -1.63,0.85 -2.44,2.25 -2.44,4.22 0,1.47 0.47,2.67 1.4,3.6 0.93,0.93 2.29,1.82 4.07,2.6 1.78,0.77 3.95,1.55 6.51,2.29 2.56,0.74 5.46,1.63 8.72,2.67 5.11,1.55 9.76,3.29 13.87,5.19 4.15,1.9 7.67,4.11 10.58,6.66 2.95,2.56 5.19,5.69 6.74,9.34 1.59,3.68 2.36,8.1 2.36,13.33 0,6.7 -1.24,12.32 -3.68,16.85 -2.44,4.53 -5.7,8.18 -9.72,10.92 -4.03,2.71 -8.56,4.69 -13.64,5.89 -5.07,1.2 -10.19,1.82 -15.3,1.82 -4.07,0 -8.25,-0.31 -12.55,-0.93 -4.3,-0.62 -8.56,-1.51 -12.79,-2.67 -4.22,-1.16 -8.33,-2.52 -12.24,-4.07 -3.91,-1.59 -7.55,-3.33 -10.92,-5.35l13.17 -26.85c3.64,2.29 7.48,4.34 11.47,6.12 3.33,1.59 7.13,2.98 11.39,4.22 4.22,1.24 8.56,1.9 12.94,1.9 3.33,0 5.66,-0.43 6.97,-1.32 1.32,-0.89 1.97,-2.05 1.97,-3.53 0,-1.59 -0.66,-2.9 -1.97,-3.99 -1.32,-1.09 -3.1,-2.05 -5.42,-2.91 -2.29,-0.85 -4.96,-1.67 -7.94,-2.52 -2.98,-0.85 -6.16,-1.82 -9.49,-2.98 -4.92,-1.67 -9.14,-3.49 -12.71,-5.43 -3.56,-1.94 -6.47,-4.15 -8.79,-6.58 -2.29,-2.44 -3.99,-5.27 -5.11,-8.41 -1.09,-3.14 -1.67,-6.74 -1.67,-10.85 0,-6.16 1.12,-11.62 3.37,-16.31 2.25,-4.73 5.31,-8.64 9.18,-11.78 3.87,-3.14 8.29,-5.5 13.25,-7.13 4.96,-1.63 10.23,-2.44 15.77,-2.44 4.07,0 8.06,0.39 11.93,1.16 3.87,0.77 7.59,1.78 11.24,2.98 3.6,1.2 6.97,2.52 10.11,3.91 3.14,1.4 5.96,2.75 8.48,3.99l-13.1 25.34 0 -0z"/>
    <polygon fill="white" points="337.99,112.39 337.99,0.97 368.6,0.97 368.6,85.7 419.12,85.7 419.12,112.39 "/>
    <path fill="#FF9A33" d="M42.77 160.63c-11.24,0 -20.34,9.1 -20.34,20.34 0,11.24 9.1,20.34 20.34,20.34 11.24,0 20.34,-9.1 20.34,-20.34 0,-11.24 -9.11,-20.34 -20.34,-20.34z"/>
    <path fill="#148907" d="M143.97 160.63c-11.24,0 -20.34,9.1 -20.34,20.34 0,11.24 9.1,20.34 20.34,20.34 11.24,0 20.34,-9.1 20.34,-20.34 0,-11.24 -9.1,-20.34 -20.34,-20.34z"/>
    <path fill="#D7AF5E" d="M247.68 160.63c-11.23,0 -20.34,9.1 -20.34,20.34 0,11.24 9.11,20.34 20.34,20.34 11.24,0 20.34,-9.1 20.34,-20.34 0,-11.24 -9.11,-20.34 -20.34,-20.34z"/>
    <path fill="#7C4799" d="M378.55 160.63c-11.24,0 -20.34,9.1 -20.34,20.34 0,11.24 9.1,20.34 20.34,20.34 11.24,0 20.34,-9.1 20.34,-20.34 0,-11.24 -9.11,-20.34 -20.34,-20.34z"/>
   </g>
  </g>
 </g>
</svg>
