<svg width="14" height="14" viewBox="0 0 14 14" fill="none" xmlns="http://www.w3.org/2000/svg">
<path d="M5.66683 6.00065H6.3335C6.52238 6.00065 6.68083 5.93665 6.80883 5.80865C6.93638 5.6811 7.00016 5.52287 7.00016 5.33398V4.66732C7.00016 4.47843 6.93638 4.31998 6.80883 4.19198C6.68083 4.06443 6.52238 4.00065 6.3335 4.00065H5.3335C5.24461 4.00065 5.16683 4.03398 5.10016 4.10065C5.0335 4.16732 5.00016 4.2451 5.00016 4.33398V7.00065C5.00016 7.08954 5.0335 7.16732 5.10016 7.23398C5.16683 7.30065 5.24461 7.33398 5.3335 7.33398C5.42238 7.33398 5.50016 7.30065 5.56683 7.23398C5.6335 7.16732 5.66683 7.08954 5.66683 7.00065V6.00065ZM5.66683 5.33398V4.66732H6.3335V5.33398H5.66683ZM9.00016 7.33398C9.18905 7.33398 9.3475 7.26998 9.4755 7.14198C9.60305 7.01443 9.66683 6.85621 9.66683 6.66732V4.66732C9.66683 4.47843 9.60305 4.31998 9.4755 4.19198C9.3475 4.06443 9.18905 4.00065 9.00016 4.00065H8.00016C7.91127 4.00065 7.8335 4.03398 7.76683 4.10065C7.70016 4.16732 7.66683 4.2451 7.66683 4.33398V7.00065C7.66683 7.08954 7.70016 7.16732 7.76683 7.23398C7.8335 7.30065 7.91127 7.33398 8.00016 7.33398H9.00016ZM8.3335 6.66732V4.66732H9.00016V6.66732H8.3335ZM11.0002 6.00065H11.3335C11.4224 6.00065 11.5002 5.96732 11.5668 5.90065C11.6335 5.83398 11.6668 5.75621 11.6668 5.66732C11.6668 5.57843 11.6335 5.50065 11.5668 5.43398C11.5002 5.36732 11.4224 5.33398 11.3335 5.33398H11.0002V4.66732H11.3335C11.4224 4.66732 11.5002 4.63398 11.5668 4.56732C11.6335 4.50065 11.6668 4.42287 11.6668 4.33398C11.6668 4.2451 11.6335 4.16732 11.5668 4.10065C11.5002 4.03398 11.4224 4.00065 11.3335 4.00065H10.6668C10.5779 4.00065 10.5002 4.03398 10.4335 4.10065C10.3668 4.16732 10.3335 4.2451 10.3335 4.33398V7.00065C10.3335 7.08954 10.3668 7.16732 10.4335 7.23398C10.5002 7.30065 10.5779 7.33398 10.6668 7.33398C10.7557 7.33398 10.8335 7.30065 10.9002 7.23398C10.9668 7.16732 11.0002 7.08954 11.0002 7.00065V6.00065ZM4.3335 11.0007C3.96683 11.0007 3.65305 10.8702 3.39216 10.6093C3.13083 10.348 3.00016 10.034 3.00016 9.66732V1.66732C3.00016 1.30065 3.13083 0.986651 3.39216 0.725318C3.65305 0.464429 3.96683 0.333984 4.3335 0.333984H12.3335C12.7002 0.333984 13.0142 0.464429 13.2755 0.725318C13.5364 0.986651 13.6668 1.30065 13.6668 1.66732V9.66732C13.6668 10.034 13.5364 10.348 13.2755 10.6093C13.0142 10.8702 12.7002 11.0007 12.3335 11.0007H4.3335ZM4.3335 9.66732H12.3335V1.66732H4.3335V9.66732ZM1.66683 13.6673C1.30016 13.6673 0.986385 13.5369 0.725496 13.276C0.464163 13.0147 0.333496 12.7007 0.333496 12.334V3.66732C0.333496 3.47843 0.397496 3.31998 0.525496 3.19198C0.653052 3.06443 0.811274 3.00065 1.00016 3.00065C1.18905 3.00065 1.3475 3.06443 1.4755 3.19198C1.60305 3.31998 1.66683 3.47843 1.66683 3.66732V12.334H10.3335C10.5224 12.334 10.6806 12.398 10.8082 12.526C10.9362 12.6535 11.0002 12.8118 11.0002 13.0007C11.0002 13.1895 10.9362 13.3478 10.8082 13.4753C10.6806 13.6033 10.5224 13.6673 10.3335 13.6673H1.66683Z" fill="black"/>
</svg>
