<svg width="19" height="22" viewBox="0 0 19 22" fill="none" xmlns="http://www.w3.org/2000/svg">
<path d="M18.3661 17.2882H4.50699C4.33658 17.2882 4.26357 17.0654 4.39702 16.9631L6.32628 15.4874H17.3496C18.1334 15.4874 18.7834 14.8463 18.7986 14.0675L18.9221 7.74057C18.9363 7.0193 18.4055 6.39303 17.6877 6.28624C17.3423 6.23483 17.0189 6.47114 16.9671 6.81532C16.9154 7.1595 17.154 7.47977 17.5002 7.53127C17.5902 7.54465 17.6567 7.62244 17.6549 7.71257L17.5314 14.0431C17.5295 14.1404 17.4479 14.2269 17.3497 14.2269H6.61421L4.61434 5.62192L5.62939 5.76918C5.97546 5.8205 6.29814 5.58149 6.34994 5.23731C6.40169 4.89313 6.16306 4.57146 5.81685 4.51996L4.29646 4.29337L3.71524 2.04492C3.64336 1.7662 3.39075 1.57617 3.10137 1.57617H0.633781C0.283777 1.57617 0 1.85845 0 2.20646C0 2.55446 0.283731 2.83674 0.633781 2.83674H2.60963L5.40112 14.5924L3.62287 15.9557C2.55005 16.7784 3.15343 18.5488 4.50695 18.5488H6.1707C6.09706 18.7289 6.05661 18.9585 6.05661 19.1839C6.05661 20.2265 6.915 21.0712 7.97013 21.0712C9.02525 21.0712 9.88364 20.2283 9.88364 19.1857C9.88364 18.9603 9.8432 18.7289 9.76955 18.5488H13.2309C13.1573 18.7289 13.1168 18.9585 13.1168 19.1839C13.1168 20.2265 13.9752 21.0712 15.0303 21.0712C16.0855 21.0712 16.9439 20.2283 16.9439 19.1857C16.9439 18.9603 16.9035 18.7289 16.8298 18.5488H18.3662C18.7163 18.5488 19 18.2665 19 17.9185C19 17.5705 18.7162 17.2882 18.3661 17.2882ZM7.97013 19.8074C7.61392 19.8074 7.32418 19.5245 7.32418 19.1769C7.32418 18.8292 7.61397 18.5464 7.97013 18.5464C8.32633 18.5464 8.61612 18.8292 8.61612 19.1769C8.61612 19.5245 8.32633 19.8074 7.97013 19.8074ZM15.0303 19.8074C14.6741 19.8074 14.3843 19.5245 14.3843 19.1769C14.3843 18.8292 14.6741 18.5464 15.0303 18.5464C15.3865 18.5464 15.6763 18.8292 15.6763 19.1769C15.6763 19.5245 15.3865 19.8074 15.0303 19.8074Z" fill="#233A61"/>
<path d="M11.5903 9.1356C9.05223 9.1356 6.9873 7.08651 6.9873 4.5678C6.9873 2.0491 9.05223 0 11.5903 0C14.1284 0 16.1934 2.0491 16.1934 4.5678C16.1934 7.08651 14.1284 9.1356 11.5903 9.1356ZM11.5903 1.2603C9.75115 1.2603 8.25487 2.74403 8.25487 4.5678C8.25487 6.39157 9.7512 7.87531 11.5903 7.87531C13.4295 7.87531 14.9258 6.39157 14.9258 4.5678C14.9258 2.74403 13.4295 1.2603 11.5903 1.2603Z" fill="#233A61"/>
<path d="M10.4677 6.17323L9.44974 4.97097C9.22432 4.70476 9.25861 4.30723 9.52638 4.08308C9.79409 3.85892 10.1939 3.893 10.4194 4.15929L10.9787 4.81988L12.7189 2.97972C12.9587 2.72621 13.3598 2.71392 13.6148 2.9523C13.8698 3.19068 13.8821 3.58952 13.6424 3.84303L11.4143 6.19907C11.2153 6.40756 10.706 6.44885 10.4677 6.17323Z" fill="#233A61"/>
</svg>
