<svg width="50" height="56" viewBox="0 0 50 56" fill="none" xmlns="http://www.w3.org/2000/svg">
<path d="M48.3319 45.496H11.8605C11.4121 45.496 11.2199 44.9097 11.5711 44.6403L16.6481 40.757H45.6569C47.7194 40.757 49.43 39.0698 49.47 37.0205L49.7951 20.3705C49.8323 18.4725 48.4356 16.8244 46.5465 16.5434C45.6376 16.4081 44.7866 17.0299 44.6504 17.9357C44.5142 18.8414 45.1422 19.6842 46.0531 19.8198C46.2899 19.8549 46.4649 20.0597 46.4603 20.2969L46.1352 36.956C46.1301 37.2122 45.9156 37.4399 45.6571 37.4399H17.4058L12.143 14.7951L14.8142 15.1827C15.7249 15.3177 16.574 14.6888 16.7104 13.783C16.8465 12.8773 16.2186 12.0308 15.3075 11.8952L11.3065 11.299L9.77695 5.38199C9.58779 4.64852 8.92303 4.14844 8.16149 4.14844H1.66785C0.746781 4.14844 0 4.89127 0 5.80708C0 6.72289 0.746662 7.46572 1.66785 7.46572H6.86745L14.2135 38.4016L9.53386 41.9894C6.71067 44.1543 8.29851 48.8133 11.8604 48.8133H16.2387C16.0449 49.2872 15.9385 49.8914 15.9385 50.4846C15.9385 53.2282 18.1974 55.4511 20.974 55.4511C23.7507 55.4511 26.0096 53.2329 26.0096 50.4892C26.0096 49.896 25.9031 49.2872 25.7093 48.8133H34.8182C34.6244 49.2872 34.518 49.8914 34.518 50.4846C34.518 53.2282 36.7769 55.4511 39.5535 55.4511C42.3302 55.4511 44.5892 53.2329 44.5892 50.4892C44.5892 49.896 44.4828 49.2872 44.289 48.8133H48.3322C49.2533 48.8133 50 48.0705 50 47.1547C50 46.2388 49.2531 45.496 48.3319 45.496ZM20.974 52.1252C20.0366 52.1252 19.2741 51.381 19.2741 50.4661C19.2741 49.5513 20.0368 48.807 20.974 48.807C21.9114 48.807 22.674 49.5513 22.674 50.4661C22.674 51.381 21.9114 52.1252 20.974 52.1252ZM39.5534 52.1252C38.616 52.1252 37.8535 51.381 37.8535 50.4661C37.8535 49.5513 38.6161 48.807 39.5534 48.807C40.4909 48.807 41.2534 49.5513 41.2534 50.4661C41.2534 51.381 40.4908 52.1252 39.5534 52.1252Z" fill="#233A61"/>
<path d="M30.5027 24.0411C23.8234 24.0411 18.3894 18.6487 18.3894 12.0205C18.3894 5.39236 23.8234 0 30.5027 0C37.1819 0 42.6159 5.39236 42.6159 12.0205C42.6159 18.6487 37.1819 24.0411 30.5027 24.0411ZM30.5027 3.31657C25.6627 3.31657 21.7251 7.22113 21.7251 12.0205C21.7251 16.8199 25.6628 20.7245 30.5027 20.7245C35.3425 20.7245 39.2802 16.8199 39.2802 12.0205C39.2802 7.22113 35.3426 3.31657 30.5027 3.31657Z" fill="#233A61"/>
<path d="M27.5454 16.2427L24.8665 13.0788C24.2733 12.3783 24.3635 11.3321 25.0682 10.7423C25.7727 10.1524 26.8247 10.2421 27.4181 10.9428L28.89 12.6812L33.4696 7.83869C34.1006 7.17156 35.1562 7.13922 35.8271 7.76654C36.4983 8.39386 36.5307 9.44343 35.8997 10.1106L30.0363 16.3107C29.5126 16.8593 28.1724 16.968 27.5454 16.2427Z" fill="#233A61"/>
</svg>
