<svg width="30" height="30" viewBox="0 0 30 30" fill="none" xmlns="http://www.w3.org/2000/svg">
<path d="M3.75 6.56254C3.50136 6.56254 3.2629 6.66131 3.08709 6.83713C2.91127 7.01294 2.8125 7.2514 2.8125 7.50004C2.8125 7.74868 2.91127 7.98714 3.08709 8.16295C3.2629 8.33877 3.50136 8.43754 3.75 8.43754H5.83125L8.29125 18.2813C8.50031 19.1157 9.2475 19.6875 10.1072 19.6875H21.7978C22.6444 19.6875 23.3634 19.125 23.5856 18.3094L26.0156 9.37504H24.0525L21.7969 17.8125H10.1062L7.64719 7.96879C7.54561 7.56494 7.31145 7.20686 6.9822 6.9519C6.65295 6.69693 6.24767 6.55983 5.83125 6.56254H3.75ZM20.625 19.6875C19.0828 19.6875 17.8125 20.9579 17.8125 22.5C17.8125 24.0422 19.0828 25.3125 20.625 25.3125C22.1672 25.3125 23.4375 24.0422 23.4375 22.5C23.4375 20.9579 22.1672 19.6875 20.625 19.6875ZM12.1875 19.6875C10.6453 19.6875 9.375 20.9579 9.375 22.5C9.375 24.0422 10.6453 25.3125 12.1875 25.3125C13.7297 25.3125 15 24.0422 15 22.5C15 20.9579 13.7297 19.6875 12.1875 19.6875ZM15 6.56254V11.25H12.1875L15.9375 15L19.6875 11.25H16.875V6.56254H15ZM12.1875 21.5625C12.7163 21.5625 13.125 21.9713 13.125 22.5C13.125 23.0288 12.7163 23.4375 12.1875 23.4375C11.6587 23.4375 11.25 23.0288 11.25 22.5C11.25 21.9713 11.6587 21.5625 12.1875 21.5625ZM20.625 21.5625C21.1537 21.5625 21.5625 21.9713 21.5625 22.5C21.5625 23.0288 21.1537 23.4375 20.625 23.4375C20.0963 23.4375 19.6875 23.0288 19.6875 22.5C19.6875 21.9713 20.0963 21.5625 20.625 21.5625Z" fill="white"/>
</svg>
