<svg width="50" height="50" viewBox="0 0 50 50" fill="none" xmlns="http://www.w3.org/2000/svg">
<path d="M50 12.4399C50 5.58043 44.3926 0 37.5 0C32.4559 0 28.1106 2.99511 26.1371 7.28684L22.168 5.49105C21.6971 5.27759 21.1591 5.27759 20.69 5.49105L1.04719 14.3767C0.408935 14.6648 0 15.2974 0 15.9942V39.0968C0 39.7936 0.408935 40.4262 1.04719 40.7143L20.69 49.6C20.9246 49.7067 21.1766 49.7596 21.4286 49.7596C21.6806 49.7596 21.9325 49.7067 22.1671 49.6L41.81 40.7143C42.4482 40.4262 42.8571 39.7936 42.8571 39.0968V23.6625C47.0728 21.6609 50 17.3898 50 12.4399ZM21.4286 9.06093L25.1314 10.7359C25.054 11.2948 25 11.861 25 12.4408C25 15.3318 26.0048 17.9888 27.6737 20.1033L21.4286 22.9274L6.1009 15.9942L21.4286 9.06093ZM3.57143 18.7535L19.6429 26.0236V45.2223L3.57143 37.9523V18.7535ZM39.2857 37.9523L23.2143 45.2223V26.0236L30.4897 22.7329C32.4903 24.0867 34.9035 24.8798 37.5 24.8798C38.1078 24.8798 38.7009 24.8218 39.2857 24.7379V37.9523ZM37.5 21.3256C32.5771 21.3256 28.5714 17.3392 28.5714 12.4399C28.5714 7.54065 32.5771 3.55426 37.5 3.55426C42.4229 3.55426 46.4286 7.54065 46.4286 12.4399C46.4286 17.3392 42.4229 21.3256 37.5 21.3256Z" fill="#1E293B"/>
<path d="M41.7337 5.45688C40.8147 5.09417 39.7788 5.53585 39.4118 6.44697L36.8465 12.8309L35.1899 11.1822C34.4923 10.488 33.3623 10.488 32.6648 11.1822C31.9672 11.8764 31.9672 13.001 32.6648 13.6952L36.2362 17.2495C36.5745 17.5861 37.0296 17.7701 37.4987 17.7701C37.6182 17.7701 37.7385 17.7579 37.858 17.7337C38.4457 17.6139 38.9339 17.2078 39.1572 16.6533L42.7286 7.76767C43.0948 6.85568 42.6492 5.8222 41.7337 5.45688Z" fill="#1E293B"/>
</svg>
