<svg width="21" height="20" viewBox="0 0 21 20" fill="none" xmlns="http://www.w3.org/2000/svg">
<path d="M20.0966 5C20.0966 2.24295 17.8428 0 15.0725 0C13.0451 0 11.2986 1.20383 10.5053 2.92882L8.91002 2.20703C8.72078 2.12123 8.50455 2.12123 8.316 2.20703L0.420899 5.77846C0.164364 5.89425 0 6.14851 0 6.42857V15.7143C0 15.9944 0.164364 16.2486 0.420899 16.3644L8.316 19.9358C8.41027 19.9787 8.51155 20 8.61284 20C8.71412 20 8.8154 19.9787 8.90967 19.9358L16.8048 16.3644C17.0613 16.2486 17.2257 15.9944 17.2257 15.7143V9.51072C18.9201 8.70623 20.0966 6.98953 20.0966 5ZM8.61284 3.64188L10.1011 4.3151C10.07 4.53975 10.0483 4.76733 10.0483 5.00035C10.0483 6.16233 10.4522 7.23027 11.1229 8.08018L8.61284 9.21526L2.45215 6.42857L8.61284 3.64188ZM1.43547 7.53762L7.8951 10.4597V18.1763L1.43547 15.2543V7.53762ZM15.7902 15.2543L9.33057 18.1763V10.4597L12.2548 9.13709C13.0589 9.68122 14.0288 10 15.0725 10C15.3168 10 15.5551 9.97668 15.7902 9.94298V15.2543ZM15.0725 8.57143C13.0938 8.57143 11.4838 6.96917 11.4838 5C11.4838 3.03083 13.0938 1.42857 15.0725 1.42857C17.0511 1.42857 18.6611 3.03083 18.6611 5C18.6611 6.96917 17.0511 8.57143 15.0725 8.57143Z" fill="#233A61"/>
<path d="M16.7748 2.19354C16.4054 2.04776 15.9891 2.22528 15.8415 2.59149L14.8105 5.15741L14.1446 4.49474C13.8643 4.21573 13.4101 4.21573 13.1297 4.49474C12.8493 4.77376 12.8493 5.22577 13.1297 5.50479L14.5652 6.93336C14.7012 7.06868 14.8841 7.14262 15.0726 7.14262C15.1207 7.14262 15.169 7.13774 15.217 7.12798C15.4532 7.07985 15.6495 6.91662 15.7392 6.69375L17.1747 3.12233C17.3219 2.75577 17.1428 2.34038 16.7748 2.19354Z" fill="#233A61"/>
</svg>
