<svg width="66" height="66" viewBox="0 0 66 66" fill="none" xmlns="http://www.w3.org/2000/svg">
<path d="M8.25 14.4376C7.70299 14.4376 7.17839 14.6549 6.79159 15.0417C6.4048 15.4285 6.1875 15.9531 6.1875 16.5001C6.1875 17.0471 6.4048 17.5717 6.79159 17.9585C7.17839 18.3453 7.70299 18.5626 8.25 18.5626H12.8287L18.2407 40.2188C18.7007 42.0545 20.3445 43.3126 22.2358 43.3126H47.9552C49.8176 43.3126 51.3996 42.0751 51.8884 40.2807L57.2344 20.6251H52.9155L47.9531 39.1876H22.2337L16.8238 17.5313C16.6003 16.6429 16.0852 15.8551 15.3608 15.2942C14.6365 14.7332 13.7449 14.4316 12.8287 14.4376H8.25ZM45.375 43.3126C41.9822 43.3126 39.1875 46.1073 39.1875 49.5001C39.1875 52.8929 41.9822 55.6876 45.375 55.6876C48.7678 55.6876 51.5625 52.8929 51.5625 49.5001C51.5625 46.1073 48.7678 43.3126 45.375 43.3126ZM26.8125 43.3126C23.4197 43.3126 20.625 46.1073 20.625 49.5001C20.625 52.8929 23.4197 55.6876 26.8125 55.6876C30.2053 55.6876 33 52.8929 33 49.5001C33 46.1073 30.2053 43.3126 26.8125 43.3126ZM33 14.4376V24.7501H26.8125L35.0625 33.0001L43.3125 24.7501H37.125V14.4376H33ZM26.8125 47.4376C27.9757 47.4376 28.875 48.3368 28.875 49.5001C28.875 50.6633 27.9757 51.5626 26.8125 51.5626C25.6493 51.5626 24.75 50.6633 24.75 49.5001C24.75 48.3368 25.6493 47.4376 26.8125 47.4376ZM45.375 47.4376C46.5382 47.4376 47.4375 48.3368 47.4375 49.5001C47.4375 50.6633 46.5382 51.5626 45.375 51.5626C44.2118 51.5626 43.3125 50.6633 43.3125 49.5001C43.3125 48.3368 44.2118 47.4376 45.375 47.4376Z" fill="#233A61"/>
</svg>
