<svg width="36" height="36" viewBox="0 0 36 36" fill="none" xmlns="http://www.w3.org/2000/svg">
<path d="M28.5822 17.9972C28.5822 23.8409 23.845 28.5781 18.0013 28.5781C12.1576 28.5781 7.42041 23.8409 7.42041 17.9972C7.42041 12.1535 12.1576 7.4163 18.0013 7.4163C23.845 7.4163 28.5822 12.1535 28.5822 17.9972Z" stroke="#292C33" stroke-width="1.5" stroke-miterlimit="10" stroke-linecap="round" stroke-linejoin="round"/>
<path d="M23.2909 14.8253L16.9423 21.1738L12.71 16.9415" stroke="#292C33" stroke-width="1.5" stroke-miterlimit="10" stroke-linecap="round" stroke-linejoin="round"/>
<path d="M16.6277 1.50524C17.4186 0.831586 18.5814 0.831586 19.3723 1.50524L22.1221 3.93215L26.7755 3.57204C27.8113 3.49191 28.7521 4.17537 28.9959 5.18521L29.9289 9.04908L33.9947 11.4828C34.8797 12.0268 35.2391 13.1327 34.8428 14.093L33.2365 17.9852L34.8428 21.8773C35.2391 22.8376 34.8797 23.9435 33.9947 24.4875L29.9289 26.9213L28.9959 30.7852C28.7521 31.7949 27.8113 32.4785 26.7755 32.3983L22.1676 32.0417L19.3723 34.4948C18.5814 35.1684 17.4186 35.1684 16.6277 34.4948L13.8324 32.0417L9.22447 32.3983C8.18867 32.4785 7.24789 31.7949 7.0041 30.7852L6.06741 26.906L2.00843 24.4875C1.1233 23.9435 0.763975 22.8376 1.16034 21.8773L2.76652 17.9852L1.16034 14.093C0.763975 13.1327 1.1233 12.0268 2.00843 11.4828L5.71951 9.27812L7.0041 5.18521C7.24789 4.17537 8.18867 3.49191 9.22447 3.57204L13.878 3.93215L16.6277 1.50524Z" stroke="#292C33" stroke-width="1.5" stroke-miterlimit="10" stroke-linecap="round" stroke-linejoin="round"/>
</svg>
