<svg width="32" height="32" viewBox="0 0 32 32" fill="none" xmlns="http://www.w3.org/2000/svg">
<path d="M13.0625 24.0005H10.75C10.2858 24.0005 9.84072 23.8161 9.51253 23.4879C9.18435 23.1597 8.99997 22.7146 8.99997 22.2505V9.50047C9.77032 9.07403 10.3784 8.40533 10.73 7.59807C11.0816 6.7908 11.157 5.89009 10.9445 5.0356C10.732 4.18112 10.2436 3.42062 9.55483 2.87205C8.86609 2.32348 8.01559 2.01749 7.13523 2.00153C6.25487 1.98558 5.39385 2.26055 4.68568 2.7838C3.97752 3.30705 3.4618 4.04935 3.21849 4.89557C2.97518 5.74179 3.01789 6.64465 3.33999 7.46412C3.66209 8.2836 4.24558 8.9739 4.99997 9.42797V22.2505C5.00163 23.775 5.60796 25.2365 6.68594 26.3145C7.76391 27.3925 9.22548 27.9988 10.75 28.0005H13.0625V31.4511L18.3993 26.0005L13.0625 20.5498V24.0005ZM7.06247 4.00047C7.45803 4.00047 7.84471 4.11777 8.17361 4.33753C8.50251 4.55729 8.75886 4.86965 8.91023 5.2351C9.06161 5.60055 9.10121 6.00269 9.02404 6.39065C8.94687 6.77861 8.75639 7.13498 8.47669 7.41468C8.19698 7.69439 7.84061 7.88487 7.45265 7.96204C7.06469 8.03921 6.66256 7.9996 6.2971 7.84823C5.93165 7.69685 5.6193 7.44051 5.39953 7.11161C5.17977 6.78271 5.06247 6.39603 5.06247 6.00047C5.06247 5.47004 5.27319 4.96133 5.64826 4.58626C6.02333 4.21118 6.53204 4.00047 7.06247 4.00047ZM27 22.5386V9.75047C26.9983 8.22598 26.392 6.76441 25.314 5.68643C24.236 4.60846 22.7745 4.00212 21.25 4.00047H19.0625V0.621094L13.5712 6.00047L19.0625 11.3798V8.00047H21.25C21.7141 8.00047 22.1592 8.18484 22.4874 8.51303C22.8156 8.84122 23 9.28634 23 9.75047V22.5386C22.2374 22.9789 21.6414 23.6585 21.3045 24.472C20.9675 25.2855 20.9084 26.1874 21.1363 27.038C21.3642 27.8885 21.8664 28.6401 22.5649 29.1761C23.2635 29.7121 24.1194 30.0027 25 30.0027C25.8805 30.0027 26.7364 29.7121 27.435 29.1761C28.1336 28.6401 28.6358 27.8885 28.8637 27.038C29.0916 26.1874 29.0325 25.2855 28.6955 24.472C28.3585 23.6585 27.7625 22.9789 27 22.5386ZM25 28.0005C24.6044 28.0005 24.2177 27.8832 23.8888 27.6634C23.5599 27.4436 23.3036 27.1313 23.1522 26.7658C23.0008 26.4004 22.9612 25.9983 23.0384 25.6103C23.1156 25.2223 23.3061 24.866 23.5858 24.5863C23.8655 24.3066 24.2218 24.1161 24.6098 24.0389C24.9978 23.9617 25.3999 24.0013 25.7653 24.1527C26.1308 24.3041 26.4431 24.5604 26.6629 24.8893C26.8827 25.2182 27 25.6049 27 26.0005C27 26.5309 26.7893 27.0396 26.4142 27.4147C26.0391 27.7898 25.5304 28.0005 25 28.0005Z" fill="#233A61"/>
</svg>
