<svg width="16" height="16" viewBox="0 0 16 16" fill="none" xmlns="http://www.w3.org/2000/svg">
<path d="M6.53136 12.0002H5.37511C5.14304 12.0002 4.92048 11.908 4.75639 11.744C4.5923 11.5799 4.50011 11.3573 4.50011 11.1252V4.75023C4.88528 4.53702 5.18935 4.20267 5.36514 3.79903C5.54093 3.3954 5.57863 2.94504 5.47239 2.5178C5.36615 2.09056 5.1219 1.71031 4.77753 1.43603C4.43317 1.16174 4.00792 1.00874 3.56774 1.00077C3.12756 0.992788 2.69705 1.13027 2.34296 1.3919C1.98888 1.65353 1.73102 2.02467 1.60937 2.44778C1.48771 2.87089 1.50907 3.32232 1.67012 3.73206C1.83117 4.1418 2.12291 4.48695 2.50011 4.71398V11.1252C2.50094 11.8875 2.8041 12.6183 3.34309 13.1573C3.88208 13.6962 4.61286 13.9994 5.37511 14.0002H6.53136V15.7255L9.1998 13.0002L6.53136 10.2749V12.0002ZM3.53136 2.00023C3.72914 2.00023 3.92248 2.05888 4.08693 2.16876C4.25138 2.27865 4.37955 2.43482 4.45524 2.61755C4.53093 2.80028 4.55073 3.00134 4.51214 3.19532C4.47356 3.38931 4.37832 3.56749 4.23846 3.70734C4.09861 3.84719 3.92043 3.94243 3.72645 3.98102C3.53247 4.0196 3.3314 3.9998 3.14867 3.92411C2.96595 3.84843 2.80977 3.72025 2.69989 3.5558C2.59001 3.39136 2.53136 3.19802 2.53136 3.00023C2.53136 2.73502 2.63671 2.48066 2.82425 2.29313C3.01179 2.10559 3.26614 2.00023 3.53136 2.00023ZM13.5001 11.2693V4.87523C13.4993 4.11299 13.1961 3.3822 12.6571 2.84322C12.1181 2.30423 11.3874 2.00106 10.6251 2.00023H9.53136V0.310547L6.78573 3.00023L9.53136 5.68992V4.00023H10.6251C10.8572 4.00023 11.0797 4.09242 11.2438 4.25652C11.4079 4.42061 11.5001 4.64317 11.5001 4.87523V11.2693C11.1188 11.4894 10.8208 11.8292 10.6523 12.236C10.4839 12.6427 10.4543 13.0937 10.5683 13.519C10.6822 13.9443 10.9333 14.32 11.2826 14.5881C11.6319 14.8561 12.0598 15.0013 12.5001 15.0013C12.9404 15.0013 13.3683 14.8561 13.7176 14.5881C14.0669 14.32 14.318 13.9443 14.432 13.519C14.5459 13.0937 14.5164 12.6427 14.3479 12.236C14.1794 11.8292 13.8814 11.4894 13.5001 11.2693ZM12.5001 14.0002C12.3023 14.0002 12.109 13.9416 11.9445 13.8317C11.7801 13.7218 11.6519 13.5656 11.5762 13.3829C11.5005 13.2002 11.4807 12.9991 11.5193 12.8051C11.5579 12.6112 11.6531 12.433 11.793 12.2931C11.9329 12.1533 12.111 12.058 12.305 12.0194C12.499 11.9809 12.7001 12.0007 12.8828 12.0764C13.0655 12.152 13.2217 12.2802 13.3316 12.4447C13.4415 12.6091 13.5001 12.8025 13.5001 13.0002C13.5001 13.2655 13.3948 13.5198 13.2072 13.7073C13.0197 13.8949 12.7653 14.0002 12.5001 14.0002Z" fill="#233A61"/>
</svg>
