<svg width="50" height="50" viewBox="0 0 50 50" fill="none" xmlns="http://www.w3.org/2000/svg">
<path d="M39.8693 25.0014C39.8693 33.2364 33.1935 39.9121 24.9586 39.9121C16.7236 39.9121 10.0479 33.2364 10.0479 25.0014C10.0479 16.7664 16.7236 10.0907 24.9586 10.0907C33.1935 10.0907 39.8693 16.7664 39.8693 25.0014Z" stroke="#233A61" stroke-width="1.5" stroke-miterlimit="10" stroke-linecap="round" stroke-linejoin="round"/>
<path d="M32.4127 20.5292L23.4662 29.4756L17.502 23.5113" stroke="#233A61" stroke-width="1.5" stroke-miterlimit="10" stroke-linecap="round" stroke-linejoin="round"/>
<path d="M23.0227 1.75695C24.1372 0.807636 25.7758 0.807636 26.8903 1.75695L30.7654 5.17697L37.3231 4.66951C38.7827 4.55658 40.1085 5.51972 40.452 6.94279L41.7667 12.3878L47.4963 15.8174C48.7436 16.5841 49.2499 18.1425 48.6915 19.4957L46.4279 24.9806L48.6915 30.4654C49.2499 31.8187 48.7436 33.3772 47.4963 34.1438L41.7667 37.5734L40.452 43.0184C40.1085 44.4414 38.7827 45.4046 37.3231 45.2917L30.8295 44.7891L26.8903 48.246C25.7758 49.1953 24.1372 49.1953 23.0227 48.246L19.0835 44.7891L12.59 45.2917C11.1303 45.4046 9.80457 44.4414 9.46102 43.0184L8.14103 37.5519L2.42109 34.1438C1.17376 33.3772 0.667392 31.8187 1.22595 30.4654L3.48939 24.9806L1.22595 19.4957C0.667392 18.1425 1.17376 16.5841 2.42109 15.8174L7.65077 12.7105L9.46102 6.94279C9.80457 5.51972 11.1303 4.55658 12.59 4.66951L19.1477 5.17697L23.0227 1.75695Z" stroke="#233A61" stroke-width="1.5" stroke-miterlimit="10" stroke-linecap="round" stroke-linejoin="round"/>
</svg>
