<svg width="18" height="18" viewBox="0 0 18 18" fill="none" xmlns="http://www.w3.org/2000/svg">
<path d="M15.75 8.3325V3.75C15.75 3.35218 15.592 2.97064 15.3107 2.68934C15.0294 2.40804 14.6478 2.25 14.25 2.25H11.115C10.8 1.38 9.975 0.75 9 0.75C8.025 0.75 7.2 1.38 6.885 2.25H3.75C2.925 2.25 2.25 2.925 2.25 3.75V14.25C2.25 14.6478 2.40804 15.0294 2.68934 15.3107C2.97064 15.592 3.35218 15.75 3.75 15.75H8.3325C9.2775 16.68 10.5675 17.25 12 17.25C14.9025 17.25 17.25 14.9025 17.25 12C17.25 10.5675 16.68 9.2775 15.75 8.3325ZM9 2.25C9.4125 2.25 9.75 2.5875 9.75 3C9.75 3.4125 9.4125 3.75 9 3.75C8.5875 3.75 8.25 3.4125 8.25 3C8.25 2.5875 8.5875 2.25 9 2.25ZM3.75 14.25V3.75H5.25V5.25H12.75V3.75H14.25V7.26C13.5675 6.9375 12.81 6.75 12 6.75H5.25V8.25H8.325C7.875 8.6775 7.53 9.1875 7.26 9.75H5.25V11.25H6.81C6.7725 11.4975 6.75 11.745 6.75 12C6.75 12.81 6.9375 13.5675 7.26 14.25H3.75ZM12 15.75C9.93 15.75 8.25 14.07 8.25 12C8.25 9.93 9.93 8.25 12 8.25C14.07 8.25 15.75 9.93 15.75 12C15.75 14.07 14.07 15.75 12 15.75ZM12.375 12.1875L14.52 13.455L13.9575 14.37L11.25 12.75V9H12.375V12.1875Z" fill="#97989D"/>
</svg>
